<svg xmlns="http://www.w3.org/2000/svg" viewBox="0 0 117.86 117.86"><defs><style>.cls-1{fill:#ed0033;}.cls-2{fill:#ba001f;}.cls-3{fill:#ffffe5;}</style></defs><g id="Layer_2" data-name="Layer 2"><g id="HeaderObjects"><path class="cls-1" d="M62.77,117.86H55.09a16,16,0,0,1-16-16V99.62A14,14,0,0,1,26.5,95.79l-4.42-4.43a14,14,0,0,1-3.83-12.58H16a16,16,0,0,1-16-16V55.09a16,16,0,0,1,16-16h2.24A14,14,0,0,1,22.08,26.5l4.42-4.42a14,14,0,0,1,12.58-3.83V16a16,16,0,0,1,16-16h7.68a16,16,0,0,1,16,16v2.24a14,14,0,0,1,12.58,3.83l4.43,4.42a14,14,0,0,1,3.83,12.58h2.23a16,16,0,0,1,16,16v7.68a16,16,0,0,1-16,16H99.62a14,14,0,0,1-3.83,12.58l-4.43,4.43a14,14,0,0,1-12.58,3.83v2.23A16,16,0,0,1,62.77,117.86Zm-13.69-39v23a6,6,0,0,0,6,6h7.68a6,6,0,0,0,6-6v-23l9.88,9.88a4,4,0,0,0,5.63,0l4.43-4.43a4,4,0,0,0,0-5.63l-9.88-9.88h23a6,6,0,0,0,6-6V55.09a6,6,0,0,0-6-6h-23l9.88-9.87a4,4,0,0,0,0-5.64l-4.43-4.42a4,4,0,0,0-5.63,0L68.78,39V16a6,6,0,0,0-6-6H55.09a6,6,0,0,0-6,6V39l-9.87-9.87a4,4,0,0,0-5.64,0l-4.42,4.42a4,4,0,0,0,0,5.64L39,49.08H16a6,6,0,0,0-6,6v7.68a6,6,0,0,0,6,6H39l-9.87,9.88a4,4,0,0,0,0,5.63l4.42,4.43a4,4,0,0,0,5.64,0Z"/><path class="cls-2" d="M73.78,101.85V73.78h28.07a11,11,0,0,0,11-11V55.09a11,11,0,0,0-11-11H73.78V16a11,11,0,0,0-11-11H55.09a11,11,0,0,0-11,11V44.08H16a11,11,0,0,0-11,11v7.68a11,11,0,0,0,11,11H44.08v28.07a11,11,0,0,0,11,11h7.68A11,11,0,0,0,73.78,101.85Z"/><path class="cls-3" d="M92.25,75.12,76.06,58.93,92.25,42.74a9,9,0,0,0,0-12.7l-4.43-4.43a9,9,0,0,0-12.7,0L58.93,41.8,42.74,25.61a9,9,0,0,0-12.7,0L25.61,30a9,9,0,0,0,0,12.7L41.8,58.93,25.61,75.12a9,9,0,0,0,0,12.7L30,92.25a9,9,0,0,0,12.7,0L58.93,76.06,75.12,92.25a9,9,0,0,0,12.7,0l4.43-4.43A9,9,0,0,0,92.25,75.12Z"/></g></g></svg>